<?xml version="1.0" encoding="UTF-8" standalone="no"?>
<!-- Created with Inkscape (http://www.inkscape.org/) -->

<svg
   xmlns:dc="http://purl.org/dc/elements/1.1/"
   xmlns:cc="http://creativecommons.org/ns#"
   xmlns:rdf="http://www.w3.org/1999/02/22-rdf-syntax-ns#"
   xmlns:svg="http://www.w3.org/2000/svg"
   xmlns="http://www.w3.org/2000/svg"
   xmlns:sodipodi="http://sodipodi.sourceforge.net/DTD/sodipodi-0.dtd"
   xmlns:inkscape="http://www.inkscape.org/namespaces/inkscape"
   version="1.1"
   id="svg2"
   xml:space="preserve"
   width="117.50362"
   height="70.954376"
   viewBox="0 0 117.50362 70.954377"
   sodipodi:docname="dachmarke.svg"
   inkscape:version="0.92.5 (2060ec1f9f, 2020-04-08)"><metadata
     id="metadata8"><rdf:RDF><cc:Work
         rdf:about=""><dc:format>image/svg+xml</dc:format><dc:type
           rdf:resource="http://purl.org/dc/dcmitype/StillImage" /><dc:title></dc:title></cc:Work></rdf:RDF></metadata><defs
     id="defs6" /><sodipodi:namedview
     pagecolor="#ffffff"
     bordercolor="#666666"
     borderopacity="1"
     objecttolerance="10"
     gridtolerance="10"
     guidetolerance="10"
     inkscape:pageopacity="0"
     inkscape:pageshadow="2"
     inkscape:window-width="2560"
     inkscape:window-height="1367"
     id="namedview4"
     showgrid="false"
     inkscape:zoom="1.2488535"
     inkscape:cx="-283.56371"
     inkscape:cy="22.247602"
     inkscape:window-x="0"
     inkscape:window-y="0"
     inkscape:window-maximized="1"
     inkscape:current-layer="g10"
     fit-margin-top="0"
     fit-margin-left="0"
     fit-margin-right="0"
     fit-margin-bottom="0" /><g
     id="g10"
     inkscape:groupmode="layer"
     inkscape:label="ink_ext_XXXXXX"
     transform="matrix(1.3333333,0,0,-1.3333333,-35.736399,143.19344)"><g
       id="g12"
       transform="scale(0.1)"><path
         d="m 875.77,1034.09 c -2.969,10.02 -9.387,13.97 -21.165,14.25 l -3,0.1 c -5.078,0.08 -7.449,1.06 -8.23,3.7 -0.785,2.65 0.234,5.23 4.879,6.6 6.559,1.94 13.117,1.21 16.074,0.6 l -3.48,14.43 c -4.676,0.4 -10.785,0.27 -17.707,-1.78 -15.032,-4.45 -20.133,-14.98 -17.141,-25.09 3.078,-10.38 8.785,-14.94 21.578,-15.31 l 3.094,-0.07 c 4.176,-0.06 7.238,-1.03 8.023,-3.67 0.864,-2.92 -0.058,-6.16 -6.254,-8 -5.101,-1.51 -11.234,-1.54 -17.55,0.06 l 3.558,-14.7 c 5.36,-0.69 11.547,-0.85 19.196,1.42 16.671,4.94 21.496,16.08 18.125,27.46 z m -73.352,-15.28 20.402,6.04 -3.965,13.39 -20.406,-6.04 -2.668,9.02 22.356,6.82 -4.024,13.57 -39.531,-11.71 17.996,-60.759 39.535,11.709 -4.023,13.58 -22.461,-6.46 z m -28.168,-1.9 c -6.07,20.49 -13.785,28.81 -36.926,21.95 l -22.863,-6.77 18,-60.758 21.133,6.262 c 22.769,6.746 26.886,18.269 20.656,39.316 z m -53.449,-49.031 -17.996,60.761 -15.489,-4.59 10.715,-35.171 -0.09,-0.027 -28.933,29.778 -18.219,-5.4 17.996,-60.757 15.488,4.586 -10.714,35.171 0.089,0.028 28.934,-29.774 z m -70.231,3.273 -11.437,38.628 -17.125,-5.08 11.437,-38.618 c 1.891,-6.379 0.211,-10.738 -4.8,-12.223 -5.192,-1.539 -8.821,1.348 -10.684,7.633 l -11.441,38.628 -17.125,-5.077 11.441,-38.621 c 5.504,-18.582 16.605,-20.942 31,-16.68 16.762,4.965 23.809,14.285 18.734,31.41 z m -73.105,-10.754 -0.055,0.18 c 0,0 8.895,6.106 5.981,15.942 -3.778,12.753 -14.672,12.402 -26.879,8.785 l -23.864,-7.071 17.997,-60.757 22.953,6.8 c 19.132,5.664 22.41,14.664 19.144,25.684 -3.531,11.934 -15.277,10.437 -15.277,10.437 z M 466.484,744.863 c 21.536,0 38.993,17.461 38.993,38.996 0,21.536 -17.457,38.996 -38.993,38.996 -21.539,0 -38.996,-17.46 -38.996,-38.996 0,-21.535 17.457,-38.996 38.996,-38.996 z m 50.246,-52.859 c 0,-53.449 -43.386,-96.805 -96.867,-96.805 h -9.293 l 0.008,93.199 c 0,16.829 -13.469,30.282 -30.285,30.282 l -49.828,-0.032 c 12.555,89.5 78.281,161.18 164.055,183.993 l -17.2,58.062 C 357.75,927.984 269.355,820.066 268.023,690.387 c 0,-17.012 13.903,-30.414 30.54,-30.414 h 53.339 l -0.023,-118.18 h 58.687 v 0.039 h 9.297 c 82.922,0 150.235,67.215 150.235,150.172 0,35.574 -53.368,35.574 -53.368,0 z m 34.161,205.578 32.207,-56.547 21.222,6.285 -5.871,46.914 0.094,0.028 20.809,-42.489 21.222,6.286 -4.058,64.886 -16.852,-4.992 5.867,-46.91 -0.09,-0.027 -19.804,42.785 -22.684,-6.719 6.055,-46.859 -0.094,-0.028 -20.809,42.489 z m 131.714,39.016 -39.535,-11.707 18,-60.758 39.532,11.707 -4.02,13.574 -22.461,-6.457 -3.211,10.84 20.403,6.047 -3.965,13.39 -20.407,-6.046 -2.671,9.019 22.355,6.82 z m 9.473,2.808 17.996,-60.758 17.309,5.125 -17.996,60.758 z m 27.801,-7.222 14.668,4.343 13.785,-46.547 17.125,5.071 -13.785,46.551 14.664,4.343 -4.207,14.211 -46.457,-13.761 4.207,-14.211"
         style="fill:#231f20;fill-opacity:1;fill-rule:nonzero;stroke:none"
         id="path14"
         inkscape:connector-curvature="0" /><path
         d="m 614.82,764.379 -18,60.758 -17.304,-5.129 17.996,-60.758 z m 63.672,18.859 -18,60.758 -15.484,-4.59 10.715,-35.168 -0.09,-0.027 -28.934,29.773 -18.219,-5.394 18,-60.762 15.485,4.59 -10.715,35.172 0.09,0.027 28.933,-29.777 z m 35.485,61.836 -4.02,13.574 -37.805,-11.199 17.996,-60.758 17.125,5.071 -6.257,21.136 19.129,5.665 -4.047,13.664 -19.129,-5.668 -3.617,12.207 z m 63.351,0.535 c -5.933,20.039 -13.476,30.786 -35.519,24.254 -22.137,-6.554 -23.43,-19.918 -17.496,-39.957 5.964,-20.133 13.507,-30.879 35.55,-24.347 22.137,6.554 23.43,19.918 17.465,40.05 z m 67.676,-13.05 -14.918,17.578 c -4.133,4.922 -7.289,4.879 -7.289,4.879 l -0.027,0.089 c 4.324,3.461 9.453,10.231 6.835,19.067 -4.128,13.937 -15.718,15.262 -29.199,11.266 l -23.683,-7.012 18,-60.762 17.125,5.074 -6.289,21.227 2.55,0.754 c 2.188,0.648 3.766,-0.668 5.84,-3.324 l 11.469,-14.637 z m 73.328,21.722 -22.734,59.356 -16.672,-4.938 -4.528,-28.195 -0.093,-0.027 -19.61,21.043 -16.668,-4.938 13.442,-62.105 16.398,4.855 -8.812,35.438 0.09,0.027 24.316,-25.891 6.289,34.957 0.094,0.028 12.09,-34.465 z m 64.672,19.157 -35.484,55.578 -22.684,-6.719 -0.129,-66.129 17.309,5.129 -0.559,12.914 16.672,4.937 6.476,-11.16 z m 31.116,59.851 -4.2,14.211 -46.459,-13.762 4.207,-14.211 14.668,4.344 13.785,-46.547 17.129,5.071 -13.789,46.55 z m 37.38,-39.559 -17.99,60.758 -17.31,-5.129 18,-60.757 z m 65.22,19.317 c -17.02,12.992 -31.1,25.07 -31.1,25.07 l 10.74,34.988 -19.59,-5.8 -7.29,-28.223 -0.09,-0.027 -7.1,23.957 -17.12,-5.071 17.99,-60.757 17.13,5.07 -7.04,23.777 0.09,0.028 c 0,0 13.02,-12.196 21.98,-19.352 l 21.4,6.34"
         style="fill:#c20e1a;fill-opacity:1;fill-rule:nonzero;stroke:none"
         id="path16"
         inkscape:connector-curvature="0" /><path
         d="m 672.961,695.543 -17.996,60.758 -15.488,-4.586 10.714,-35.172 -0.089,-0.027 -28.934,29.773 -18.219,-5.394 17.996,-60.758 15.489,4.586 -10.715,35.172 0.09,0.027 28.933,-29.774 z m 65.766,19.48 -35.489,55.579 -22.679,-6.719 -0.129,-66.125 17.304,5.125 -0.554,12.914 16.672,4.937 6.472,-11.16 z m 46.472,16.047 -4.722,13.266 c -3.297,-3.258 -7.118,-6.074 -11.762,-7.449 -6.379,-1.891 -12.797,-0.621 -16.305,11.222 l -2.105,7.106 c -2.617,8.836 -0.809,16.109 7.48,18.562 3.735,1.11 8.703,1.391 13.043,0.793 l -3.293,13.789 c -4.703,0.489 -10.219,0.043 -15.137,-1.414 -21.043,-6.23 -24.726,-19.211 -18.468,-40.347 5.8,-19.582 14.3,-30.543 35.07,-24.391 7.105,2.106 12.219,4.91 16.199,8.863 z m 59.102,15.227 -18,60.758 -17.125,-5.075 6.531,-22.042 -17.309,-5.125 -6.527,22.042 -17.129,-5.074 18,-60.758 17.125,5.075 -7.125,24.047 17.309,5.128 7.125,-24.05 z m 74.094,88.039 -16.852,-4.992 5.867,-46.914 -0.09,-0.028 -19.804,42.786 -22.684,-6.719 6.051,-46.86 -0.09,-0.027 -20.809,42.488 -17.214,-5.101 32.207,-56.547 21.222,6.285 -5.871,46.914 0.094,0.027 20.808,-42.488 21.223,6.285 z m 67.734,-21.949 -11.441,38.621 -17.125,-5.07 11.441,-38.625 c 1.887,-6.375 0.207,-10.739 -4.805,-12.223 -5.191,-1.539 -8.82,1.351 -10.683,7.637 l -11.442,38.621 -17.125,-5.071 11.442,-38.625 c 5.504,-18.582 16.605,-20.941 31,-16.675 16.761,4.961 23.808,14.285 18.738,31.41 z m 57.221,-4.852 -4.73,13.266 c -3.29,-3.254 -7.11,-6.071 -11.76,-7.446 -6.38,-1.89 -12.8,-0.621 -16.3,11.219 l -2.11,7.106 c -2.62,8.836 -0.81,16.109 7.48,18.566 3.74,1.106 8.71,1.391 13.04,0.793 l -3.29,13.785 c -4.7,0.492 -10.22,0.047 -15.13,-1.41 -21.046,-6.234 -24.734,-19.215 -18.472,-40.348 5.801,-19.586 14.302,-30.543 35.072,-24.39 7.1,2.105 12.22,4.906 16.2,8.859 z m 59.1,15.227 -18,60.761 -17.13,-5.074 6.53,-22.043 -17.3,-5.129 -6.53,22.043 -17.13,-5.07 18,-60.758 17.12,5.071 -7.12,24.05 17.31,5.125 7.12,-24.047 z m 45.84,33.894 c -2.97,10.02 -9.39,13.961 -21.16,14.242 l -3.01,0.098 c -5.07,0.082 -7.44,1.067 -8.23,3.707 -0.78,2.641 0.24,5.223 4.89,6.598 6.55,1.945 13.11,1.211 16.07,0.601 l -3.48,14.426 c -4.68,0.399 -10.79,0.274 -17.71,-1.777 -15.03,-4.453 -20.13,-14.981 -17.14,-25.094 3.08,-10.383 8.79,-14.934 21.58,-15.309 l 3.09,-0.074 c 4.18,-0.051 7.24,-1.023 8.02,-3.668 0.87,-2.914 -0.05,-6.16 -6.25,-7.992 -5.1,-1.512 -11.23,-1.547 -17.55,0.051 l 3.56,-14.699 c 5.36,-0.692 11.55,-0.84 19.2,1.425 16.67,4.938 21.49,16.079 18.12,27.465 z m -500.704,-203.558 3.613,-12.203 19.129,5.664 4.047,-13.664 -19.129,-5.665 6.262,-21.132 -17.125,-5.075 -18,60.758 37.805,11.199 4.019,-13.574 z m 132.062,-12.004 -11.468,14.633 c -2.075,2.656 -3.653,3.972 -5.84,3.324 l -2.551,-0.754 6.289,-21.227 -17.125,-5.07 -18,60.758 23.684,7.015 c 13.484,3.993 25.07,2.668 29.199,-11.269 2.617,-8.836 -2.512,-15.606 -6.836,-19.066 l 0.027,-0.09 c 0,0 3.157,0.043 7.289,-4.875 l 14.918,-17.578 z m 48.098,14.246 -21.133,-6.262 -18,60.758 22.867,6.773 c 23.137,6.852 30.852,-1.464 36.922,-21.961 6.235,-21.039 2.118,-32.562 -20.656,-39.308 z m 38.984,11.547 -17.996,60.758 39.532,11.71 4.023,-13.574 -22.355,-6.82 2.671,-9.016 20.403,6.043 3.969,-13.39 -20.407,-6.043 3.211,-10.84 22.461,6.453 4.024,-13.57 z m 79.704,23.609 -11.469,14.637 c -2.074,2.652 -3.652,3.969 -5.84,3.32 l -2.551,-0.754 6.289,-21.222 -17.125,-5.075 -18,60.758 23.688,7.016 c 13.48,3.996 25.066,2.672 29.195,-11.266 2.617,-8.836 -2.512,-15.605 -6.836,-19.066 l 0.028,-0.094 c 0,0 3.156,0.043 7.289,-4.875 l 14.918,-17.578 z m 60.756,17.996 -28.932,29.778 -0.09,-0.028 10.715,-35.172 -15.485,-4.59 -18,60.758 18.219,5.399 28.933,-29.774 0.09,0.028 -10.71,35.168 15.48,4.589 18,-60.757 z m -294.936,-27.836 9.594,2.84 -3.914,13.211 -19.754,-5.852 3.211,-10.832 c -1.274,-0.265 -2.446,-0.39 -3.828,-0.8 -1.727,-0.512 -3.102,-1.16 -4.579,-1.774 l -3.23,10.91 -19.754,-5.851 3.91,-13.211 10.348,3.066 c -8.805,-7.722 -8.406,-18.933 -4.867,-30.883 4.664,-15.753 12.683,-28.113 34.73,-21.582 22.137,6.555 22.949,21.532 18.281,37.29 -3.535,11.945 -8.843,21.703 -20.148,23.468"
         style="fill:#f2cb13;fill-opacity:1;fill-rule:nonzero;stroke:none"
         id="path18"
         inkscape:connector-curvature="0" /></g></g></svg>