<?xml version="1.0" encoding="UTF-8" standalone="no"?>
<!-- Created with Inkscape (http://www.inkscape.org/) -->

<svg
   xmlns:dc="http://purl.org/dc/elements/1.1/"
   xmlns:cc="http://creativecommons.org/ns#"
   xmlns:rdf="http://www.w3.org/1999/02/22-rdf-syntax-ns#"
   xmlns:svg="http://www.w3.org/2000/svg"
   xmlns="http://www.w3.org/2000/svg"
   xmlns:sodipodi="http://sodipodi.sourceforge.net/DTD/sodipodi-0.dtd"
   xmlns:inkscape="http://www.inkscape.org/namespaces/inkscape"
   width="273.10873mm"
   height="180.51419mm"
   viewBox="0 0 273.10873 180.51419"
   version="1.1"
   id="svg907"
   inkscape:version="0.92.3 (2405546, 2018-03-11)"
   sodipodi:docname="ohneText.svg">
  <defs
     id="defs901" />
  <sodipodi:namedview
     id="base"
     pagecolor="#ffffff"
     bordercolor="#666666"
     borderopacity="1.0"
     inkscape:pageopacity="0.0"
     inkscape:pageshadow="2"
     inkscape:zoom="0.35"
     inkscape:cx="-476.74615"
     inkscape:cy="72.557749"
     inkscape:document-units="mm"
     inkscape:current-layer="layer1"
     showgrid="false"
     fit-margin-top="0"
     fit-margin-left="0"
     fit-margin-right="0"
     fit-margin-bottom="0"
     inkscape:window-width="2560"
     inkscape:window-height="1369"
     inkscape:window-x="0"
     inkscape:window-y="0"
     inkscape:window-maximized="1" />
  <metadata
     id="metadata904">
    <rdf:RDF>
      <cc:Work
         rdf:about="">
        <dc:format>image/svg+xml</dc:format>
        <dc:type
           rdf:resource="http://purl.org/dc/dcmitype/StillImage" />
        <dc:title></dc:title>
      </cc:Work>
    </rdf:RDF>
  </metadata>
  <g
     inkscape:label="Layer 1"
     inkscape:groupmode="layer"
     id="layer1"
     transform="translate(-18.415872,12.48328)">
    <g
       transform="matrix(0.28222223,0,0,0.28222223,161.65218,-114.51344)"
       id="g4894">
      <g
         id="g4858">
        <g
           id="g4158"
           transform="matrix(1.25,0,0,-1.25,123.57117,457.09335)">
          <path
             d="M 0,0 60.294,6.92 126.699,6.848 148.753,0 l 51.928,41.744 48.234,13.649 8.685,-40.969 -13.237,-91.066 -64.502,-124.47 -56.963,-63.752 -98.648,2.281 -87.244,115.846 -34.188,108.8 -1.904,62.976 15.186,35.667 28.488,-2.282 z"
             style="fill:#ffffff;fill-opacity:1;fill-rule:nonzero;stroke:none"
             id="path4160"
             inkscape:connector-curvature="0" />
        </g>
        <g
           id="g4162"
           transform="matrix(1.25,0,0,-1.25,404.36955,460.27698)">
          <path
             d="m 0,0 -7.59,13.932 h -10.674 l -21.962,-25.795 33.398,-15.949 z m -294.461,-24.681 31.111,20.03 c 0,0 -6.828,20.109 -7.962,21.23 -1.142,1.149 -16.321,9.886 -16.321,9.886 0,0 -10.237,-5.6 -11.386,-6.854 -1.133,-1.22 0.385,-24.262 0.385,-24.262 z"
             style="fill:#99d422;fill-opacity:1;fill-rule:nonzero;stroke:none"
             id="path4164"
             inkscape:connector-curvature="0" />
        </g>
        <g
           id="g4166"
           transform="matrix(1.25,0,0,-1.25,459.67592,456.90298)">
          <path
             d="m 0,0 c -0.025,2.953 0,5.886 0.067,8.831 l 0.12,1.625 c 0.198,2.117 0.325,4.227 0.079,6.403 -0.352,3.092 -0.789,6.223 -1.207,9.341 -0.492,3.55 -0.976,7.113 -1.346,10.762 -0.24,2.282 -0.228,4.577 -0.228,6.88 l -0.012,2.926 c -0.179,17.156 -8.452,33.65 -33.417,21.071 -5.952,-2.973 -12.237,-4.804 -17.232,-7.179 -3.41,-1.632 -6.747,-3.384 -10.085,-5.129 -2.632,-1.385 -5.266,-2.765 -7.954,-4.08 -4.145,-2.07 -7.749,-4.683 -11.377,-8.332 -2.96,-3.065 -6.782,-6.045 -10.105,-8.666 -2.203,-1.724 -4.451,-3.343 -6.701,-4.988 -3.589,-2.641 -7.178,-5.281 -10.569,-8.108 -3.058,-2.535 -5.406,-5.361 -7.483,-7.816 l -2.117,-2.461 c -0.133,-0.152 -0.266,-0.285 -0.378,-0.418 -0.359,0.16 -0.783,0.318 -1.293,0.557 -3.244,1.354 -6.337,1.752 -8.824,2.031 l -1.833,0.238 c -1.1,0.154 -2.209,0.24 -4.617,0.366 -7.065,1.226 -14.097,2.513 -21.203,3.788 -5.739,1.047 -11.631,1.512 -16.813,0.478 0.081,0 0.161,0.02 0.226,0.046 l -1.511,0.418 c -1.242,0.53 -3.564,1.52 -6.51,1.52 l -2.647,-0.286 c -0.802,-0.16 -1.865,-0.239 -3.33,-0.239 l -5.985,0.107 c -3.417,0 -7.935,-0.266 -12.64,-2.177 -6.155,1.706 -13.208,1.261 -19.941,0.265 -1.455,-0.205 -2.888,-0.411 -4.3,-0.571 -9.634,-0.915 -19.121,-2.461 -28.304,-3.953 l -5.161,-0.81 -4.97,6.144 c -2.029,2.72 -4.113,5.44 -6.461,7.868 -3.41,3.536 -7.052,6.934 -10.702,10.357 l -5.233,4.916 c -1.069,1.022 -2.164,2.017 -3.279,3.032 -2.222,1.99 -4.306,3.868 -5.387,5.513 -4.532,6.88 -11,10.695 -16.176,13.787 -1.446,0.863 -2.906,1.699 -4.299,2.614 -3.761,2.534 -7.796,3.914 -11.331,5.148 -1.101,0.392 -2.196,0.757 -3.284,1.168 -9.998,3.902 -22.451,5.785 -28.376,-2.561 -5.998,-8.465 -12.421,-25.357 -12.752,-40.232 -0.052,-2.614 -0.524,-5.227 -0.962,-7.815 -0.987,-5.879 -2.103,-12.525 -0.437,-19.996 0.338,-1.547 0.523,-3.092 0.73,-4.605 l 0.511,-3.477 c 0.14,-0.763 0.311,-1.565 0.631,-2.488 0.012,-2.952 -0.029,-5.958 -0.068,-8.909 -0.074,-5.679 -0.146,-11.345 0.068,-16.999 0.205,-5.44 1.837,-10.376 3.137,-14.33 l 0.452,-1.327 c 1.379,-4.027 2.552,-7.511 2.182,-10.178 -0.445,-2.959 -0.565,-7.424 1.307,-11.968 1.199,-2.906 2.534,-5.786 3.88,-8.624 1.342,-2.853 2.687,-5.68 3.815,-8.56 4.592,-11.709 8.892,-23.473 13.177,-35.241 l 1.247,-3.584 c 2.184,-6.383 4.664,-13.646 10.496,-20.388 1.885,-2.221 3.489,-5.313 5.183,-8.551 l 1.697,-3.186 c 0.55,-1 0.941,-2.095 1.367,-3.17 1.28,-3.263 2.872,-7.298 6.269,-10.9 0.903,-0.936 1.347,-2.17 2.203,-4.678 l 1.181,-3.344 c 0.584,-1.472 1.771,-4.472 4.638,-6.847 0.266,-0.85 0.576,-1.631 0.969,-2.469 1.584,-3.316 4.079,-5.453 5.909,-6.926 0.784,-2.588 2.324,-6.82 4.539,-9.361 0.764,-0.861 1.586,-1.697 2.415,-2.502 0.545,-0.557 1.135,-1.074 1.978,-2.229 0.948,-1.279 2.236,-3.039 2.534,-3.787 1.877,-5.261 4.837,-9.123 9.335,-12.214 0.743,-0.526 1.837,-1.752 2.906,-2.973 l 1.771,-2.151 c 1.129,-1.671 3.011,-4.47 6.463,-7.191 1.446,-4.027 4.166,-9.91 11.198,-14.225 0.419,-0.31 1.44,-1.644 2.096,-2.48 l 1.486,-1.99 c 0.796,-1.567 2.589,-5.096 6.423,-7.1 0.139,-0.238 0.252,-0.451 0.405,-0.689 1.473,-2.403 4.512,-7.319 10.688,-9.409 l 1.905,-2.228 c 3.462,-4.074 6.927,-8.102 10.502,-12.154 1.379,-1.539 4.239,-4.287 8.445,-5.719 2.35,-3.565 5.017,-6.184 8.352,-8.109 3.558,-2.069 8.415,-4.87 14.962,-4.87 2.275,0 4.571,0.373 6.8,1.022 8.061,2.488 13.881,6.873 19.015,10.75 l 2.354,1.777 c 2.044,1.512 4.001,3.131 5.946,4.789 2.308,1.979 4.597,3.969 7.253,5.534 6.249,3.794 11.323,8.134 16.625,12.685 5.109,4.365 10.104,8.838 15.093,13.283 l 5.546,4.963 0.994,1.022 c 7.227,8.232 8.401,11 8.752,11.822 0.844,1.644 3.045,4.445 3.331,4.803 l 2.309,3.304 c 1.434,2.084 2.839,4.127 4.418,6.037 2.257,2.747 4.598,5.434 6.94,8.108 2.474,2.84 4.957,5.693 7.311,8.545 1.407,1.672 2.588,3.504 3.762,5.334 0.538,0.836 1.054,1.672 1.658,2.51 l 6.271,8.238 c 3.72,4.857 7.437,9.713 10.987,14.715 1.924,2.695 2.998,5.388 3.854,7.578 0.331,0.842 0.643,1.705 1.102,2.541 0.855,1.638 1.87,3.191 2.978,4.916 l 1.48,2.402 c 0.113,0.186 13.196,19.844 13.985,26.512 0.252,1.074 1.726,4.676 2.674,6.793 0.432,0.769 0.901,1.447 1.32,2.096 1.527,2.216 3.39,5.015 4.134,8.918 0.185,0.994 1.286,2.878 2.234,4.55 2.157,3.676 5.217,8.97 5.341,15.552 l 0.24,0.344 c 1.202,1.798 2.382,3.583 3.829,5.308 2.852,3.53 4.485,7.112 5.135,11.266 l 0.364,2.375 c 0.928,6.302 1.732,11.744 4.352,16.162 1.712,2.899 2.516,6.409 2.276,9.726 -0.305,4.783 0.857,10.018 2.091,15.531 0.934,4.2 1.857,8.419 2.341,12.758 0.291,2.846 1.081,5.62 1.83,8.387 0.671,2.534 1.361,5.082 1.825,7.537 0.598,2.972 0.393,5.652 0.232,7.603 z m -24.122,-1.127 c -0.279,-2.295 -1.248,-4.651 -0.989,-6.907 0.57,-4.365 -0.232,-8.36 -2.388,-12.074 -1.593,-2.747 -1.532,-5.494 -1.48,-8.472 0.081,-3.763 -0.55,-7.505 -1.021,-11.233 -0.187,-1.632 -0.771,-3.171 -1.049,-4.764 -1.446,-8.239 -2.76,-16.467 -4.266,-24.68 -0.285,-1.606 -0.988,-3.145 -1.698,-4.632 -3.133,-6.409 -6.296,-12.83 -9.488,-19.24 -2.376,-4.764 -4.996,-9.42 -7.172,-14.25 -3.104,-6.979 -5.738,-14.172 -8.533,-21.258 -2.904,-7.264 -8.033,-13.229 -11.185,-20.209 -2.368,-5.129 -5.161,-10.098 -7.955,-15.033 -1.074,-1.911 -3.217,-3.344 -4.001,-5.307 -4.344,-10.801 -14.489,-18.404 -19.173,-29.152 -2.261,-5.204 -7.311,-9.414 -11.06,-14.092 -6.92,-8.625 -13.607,-17.391 -20.773,-25.862 -2.707,-3.158 -5.858,-6.117 -9.116,-9.169 l -0.563,0.384 c -5.222,4.313 -10.807,5.362 -15.3,6.225 -1.241,0.211 -2.48,0.449 -3.682,0.728 -7.497,1.885 -14.84,2.124 -21.972,2.309 l -6.072,0.227 c -6.467,0.291 -12.957,-0.121 -19.438,-0.493 l -3.889,-0.23 c -3.058,-0.18 -5.778,-1.334 -7.809,-2.303 -1.174,-0.578 -2.488,-0.888 -3.787,-1.26 -3.604,-1.048 -8.406,-2.402 -11.592,-6.902 -0.205,-0.025 -0.405,-0.105 -0.596,-0.158 -0.936,-0.18 -1.858,-0.438 -2.687,-0.729 l -1.108,-0.412 c -4.724,7.006 -11.185,13.071 -16.526,19.838 -9.111,11.557 -18.909,22.723 -25.936,35.481 -4.034,7.271 -9.128,14.119 -13.527,21.283 -2.376,3.836 -4.278,7.922 -6.384,11.93 -4.325,8.173 -9.374,16.148 -12.749,24.593 -2.941,7.291 -12.029,25.551 -12.514,26.983 -3.516,10.005 -6.886,20.076 -10.31,30.121 -0.497,1.412 -0.797,2.9 -1.566,4.18 -3.065,5.016 -4.77,10.19 -4.034,15.896 0.159,1.201 -0.304,2.588 -0.908,3.735 -2.05,3.815 -2.773,7.743 -2.303,11.816 0.764,6.808 -2.66,12.899 -4.743,19.228 -0.379,1.2 -0.91,2.428 -0.982,3.636 -0.69,10.031 -1.546,20.076 -1.731,30.113 -0.086,5.049 1.154,10.064 1.784,15.107 0.047,0.557 0.331,1.102 0.266,1.625 -1.088,8.658 2.812,17.808 7.297,24.396 2.76,3.994 10.184,1.645 14.689,-1.228 4.763,-3.064 9.374,-6.203 13.828,-9.573 1.83,-1.388 2.951,-3.503 4.576,-5.148 4.36,-4.446 8.877,-8.785 13.243,-13.256 2.441,-2.482 4.663,-5.128 6.94,-7.736 1.433,-1.599 3.012,-3.172 4.053,-4.949 1.852,-3.079 3.683,-6.197 4.916,-9.462 1.898,-4.962 5.514,-9.102 10.896,-9.991 4.868,-0.756 10.905,-3.158 15.271,1.599 0.577,0.657 1.698,1.014 2.667,1.2 10.536,2.23 21.018,4.685 31.653,6.383 5.161,0.809 10.668,0.16 16.01,-0.053 7.583,-0.266 15.179,0.962 22.743,-1.128 0.915,-0.259 2.089,0 3.044,0.345 5.276,1.832 10.477,0.889 15.731,-0.577 1.002,-0.285 2.07,-0.604 3.007,-0.524 10.349,0.995 20.081,-1.101 29.49,-5.148 0.915,-0.425 2.089,-0.89 2.931,-0.678 4.559,1.016 8.042,-1.393 11.683,-2.984 7.823,-3.451 13.336,-2.323 17.338,4.285 1.432,2.309 1.983,5.049 3.269,7.458 0.911,1.724 2.118,3.475 3.704,4.73 6.56,5.274 13.361,10.369 20.055,15.53 2.74,2.111 5.599,4.127 8.147,6.423 4.665,4.246 9.979,7.669 15.883,10.444 1.181,0.516 2.686,0.49 4.028,0.808 3.927,0.916 7.848,1.824 11.71,2.826 1.845,0.464 4.26,2.057 5.294,1.514 2.103,-1.182 4.557,-3.299 5.035,-5.308 1.554,-6.828 3.503,-13.681 2.926,-20.707 -0.199,-2.826 0.605,-5.752 0.631,-8.631 0.027,-2.481 -0.366,-4.99 -0.683,-7.477"
             style="fill:#f25c19;fill-opacity:1;fill-rule:nonzero;stroke:none"
             id="path4168"
             inkscape:connector-curvature="0" />
        </g>
        <g
           id="g4170"
           transform="matrix(1.25,0,0,-1.25,83.258675,457.65735)">
          <path
             d="m 0,0 c -1.698,2.508 -3.104,5.176 -4.604,7.763 -1.016,1.831 -1.726,3.794 -2.965,5.44 -2.827,3.689 -5.9,7.192 -8.918,10.721 -0.743,0.836 -1.699,1.646 -2.746,2.044 -3.305,1.168 -6.628,2.296 -10.025,3.184 -6.143,1.566 -14.059,-1.3 -15.863,-6.276 -3.158,-8.864 -6.309,-17.807 -2.224,-27.533 1.174,-2.839 1.407,-6.037 1.838,-9.089 0.57,-3.981 0.386,-8.081 1.532,-11.929 0.631,-2.19 1.408,-3.709 0,-5.938 -1.392,-2.17 0.631,-4.598 3.51,-5.354 3.053,-0.73 5.196,0.358 7.053,2.222 1.313,1.387 2.275,3.165 3.875,4.107 8.226,4.804 16.652,9.488 26.458,11.558 6.098,1.3 10.536,3.675 11.167,9.825 C 7.006,-8.18 5.725,-7.032 4.63,-5.771 3.019,-3.894 1.367,-2.017 0,0 m -13.164,-6.063 c -0.032,-0.863 -1.625,-1.938 -2.772,-2.442 -4.154,-1.845 -8.454,-3.45 -12.606,-5.302 -2.11,-0.934 -4.106,-2.195 -7.425,-4.026 -1.432,7.377 -3.376,11.225 -2.93,17.436 0.437,6.096 0.854,13.308 8.119,16.785 10.31,-2.19 13.548,-9.766 17.341,-16.547 1.396,-2.402 0.401,-3.026 0.273,-5.904"
             style="fill:#f25c19;fill-opacity:1;fill-rule:nonzero;stroke:none"
             id="path4172"
             inkscape:connector-curvature="0" />
        </g>
        <g
           id="g4174"
           transform="matrix(1.25,0,0,-1.25,406.71693,443.99035)">
          <path
             d="m 0,0 c 0.212,2.588 -1.016,4.233 -3.158,5.587 -9.263,5.825 -22.962,2.335 -27.534,-6.635 -1.598,-3.118 -3.643,-5.546 -8.453,-8.001 -3.183,-3.396 -7.874,-7.617 -11.577,-12.472 -4.001,-5.229 -1.041,-9.886 6.198,-10.563 3.92,-0.371 7.112,-1.698 9.493,-4.684 5.347,-6.582 13.96,-8.201 21.643,-10.947 4.855,-1.705 9.493,2.242 9.752,6.847 0.099,2.507 0.869,4.909 1.652,7.284 0.943,2.959 2.838,5.653 3.297,8.665 0.665,4.366 1.46,9.8 1.593,14.251 0,0.518 0,1.3 -0.379,1.565 C -1.041,-6.567 -0.212,-3.145 0,0 m -10.33,-23.273 c -0.836,-2.33 -1.28,-4.864 -2.402,-7.06 -1.093,-1.99 -0.18,-0.756 -1.791,-2.772 -4.287,-0.239 -8.04,0.809 -10.689,4.703 -0.869,1.254 -2.978,1.878 -4.577,2.773 -1.726,0.916 -3.503,1.812 -6.302,3.244 5.864,6.668 10.7,12.055 16.008,17.861 3.104,3.396 6.535,3.105 9.593,-0.558 2.48,-2.951 1.5,-14.369 0.16,-18.191"
             style="fill:#f25c19;fill-opacity:1;fill-rule:nonzero;stroke:none"
             id="path4176"
             inkscape:connector-curvature="0" />
        </g>
        <g
           id="g4178"
           transform="matrix(1.25,0,0,-1.25,183.5553,577.5011)">
          <path
             d="m 0,0 c -0.338,6.561 -5.062,11.272 -12.545,11.656 -7.026,0 -15.625,-5.612 -16.601,-13.142 -0.186,-1.599 -0.317,-3.192 -0.43,-4.784 -0.146,-2.043 -0.279,-4.087 -0.671,-6.064 -1.16,-5.733 2.236,-9.368 4.267,-11.53 0.524,-0.551 1.293,-1.414 1.493,-1.912 0.563,-1.752 1.697,-2.826 2.314,-3.404 l 1.426,-1.518 2.07,-0.252 c 1.68,-0.185 3.147,-0.293 4.433,-0.293 8.903,0 12.022,5.362 13.773,10.098 0.883,2.428 1.286,5.201 1.2,8.414 -0.038,2.852 -0.238,5.678 -0.45,8.504 z"
             style="fill:#231f20;fill-opacity:1;fill-rule:nonzero;stroke:none"
             id="path4180"
             inkscape:connector-curvature="0" />
        </g>
        <g
           id="g4182"
           transform="matrix(1.25,0,0,-1.25,289.87243,567.95648)">
          <path
             d="m 0,0 c -2.799,2.999 -7.264,3.769 -9.041,3.975 l -1.777,0.099 c -7.425,0 -13.921,-5.016 -15.433,-11.916 -1.162,-5.255 -1.831,-10.456 -1.998,-15.577 -0.079,-3.012 1.216,-6.131 4.022,-9.647 1.472,-1.785 3.263,-3.012 4.829,-4.141 l 3.994,-3.031 4.816,1.412 c 1.367,0.426 2.741,0.811 4.08,1.149 7.06,1.785 11.353,6.588 12.088,13.408 l 0.147,1.805 c 0.046,0.451 0.086,1.154 0.058,1.154 C 10.709,-11.683 4.034,-4.418 0,0"
             style="fill:#231f20;fill-opacity:1;fill-rule:nonzero;stroke:none"
             id="path4184"
             inkscape:connector-curvature="0" />
        </g>
        <g
           id="g4186"
           transform="matrix(1.25,0,0,-1.25,236.0688,808.05835)">
          <path
             d="m 0,0 c -2.487,-1.912 -6.305,-2.41 -8.896,-4.248 -4.069,-2.838 -8.534,-3.264 -13.323,-2.322 -2.25,0.412 -4.611,1.513 -6.388,2.853 -2.848,2.117 -5.21,4.731 -7.871,7.113 -1.147,1.014 -2.381,2.348 -3.8,2.686 -4.458,0.977 -6.209,4.027 -8.194,7.113 5.918,6.284 13.693,7.742 21.628,8.758 2.541,0.324 5.301,-0.027 7.902,-0.445 4.856,-0.731 9.607,-1.281 14.596,-1.102 5.546,0.213 11.012,-1.06 15.565,-4.537 1.239,-0.943 2.567,-1.752 4.039,-2.773 C 10.085,8.57 5.287,4.02 0,0"
             style="fill:#231f20;fill-opacity:1;fill-rule:nonzero;stroke:none"
             id="path4188"
             inkscape:connector-curvature="0" />
        </g>
      </g>
      <g
         id="g4876">
        <g
           id="g4190"
           transform="matrix(1.25,0,0,-1.25,-493.57233,582.85998)">
          <path
             d="m 0,0 1.898,-62.981 34.19,-108.793 87.241,-115.844 98.655,-2.277 56.957,63.738 64.507,124.483 13.243,91.041 -8.697,40.987 -48.22,-13.647 -51.942,-41.752 -22.046,6.847 -66.412,0.08 -60.288,-6.927 -55.408,58.431 -28.502,2.275 z"
             style="fill:#99d422;fill-opacity:1;fill-rule:nonzero;stroke:none"
             id="path4192"
             inkscape:connector-curvature="0" />
        </g>
        <g
           id="g4194"
           transform="matrix(1.25,0,0,-1.25,-88.917825,617.33323)">
          <path
             d="m 0,0 -7.595,13.932 h -10.669 l -21.967,-25.809 33.398,-15.949 z m -294.456,-24.682 31.102,20.024 c 0,0 -6.823,20.103 -7.964,21.23 -1.134,1.155 -16.318,9.88 -16.318,9.88 0,0 -10.236,-5.593 -11.378,-6.854 -1.133,-1.221 0.378,-24.256 0.378,-24.256 z"
             style="fill:#ffffff;fill-opacity:1;fill-rule:nonzero;stroke:none"
             id="path4196"
             inkscape:connector-curvature="0" />
        </g>
        <g
           id="g4198"
           transform="matrix(1.25,0,0,-1.25,-33.617575,613.97635)">
          <path
             d="m 0,0 c -0.02,2.953 0,5.912 0.067,8.846 l 0.126,1.617 c 0.191,2.111 0.319,4.234 0.079,6.41 -0.344,3.105 -0.79,6.21 -1.202,9.329 -0.496,3.555 -0.98,7.137 -1.352,10.773 -0.245,2.27 -0.234,4.598 -0.234,6.874 l -0.011,2.933 c -0.18,17.17 -8.446,33.642 -33.412,21.097 -5.952,-3.012 -12.235,-4.843 -17.231,-7.192 -3.409,-1.645 -6.747,-3.396 -10.097,-5.148 -2.614,-1.393 -5.254,-2.773 -7.948,-4.086 -4.14,-2.032 -7.749,-4.671 -11.378,-8.333 -2.96,-3.066 -6.774,-6.044 -10.105,-8.666 -2.189,-1.698 -4.437,-3.337 -6.694,-4.989 -3.582,-2.633 -7.192,-5.281 -10.569,-8.107 -3.051,-2.535 -5.413,-5.335 -7.483,-7.809 l -2.117,-2.461 c -0.139,-0.16 -0.272,-0.279 -0.377,-0.426 -0.359,0.174 -0.783,0.326 -1.295,0.559 -3.245,1.379 -6.342,1.75 -8.818,2.035 l -1.845,0.232 c -1.092,0.186 -2.208,0.241 -4.616,0.399 -7.066,1.209 -14.091,2.48 -21.203,3.795 -5.746,1.049 -11.624,1.486 -16.817,0.439 0.081,0.025 0.171,0.053 0.23,0.078 l -1.512,0.399 c -1.245,0.518 -3.553,1.513 -6.502,1.513 l -2.65,-0.292 c -0.804,-0.16 -1.862,-0.227 -3.334,-0.227 l -5.989,0.094 c -3.41,0 -7.935,-0.239 -12.636,-2.163 -6.156,1.698 -13.191,1.274 -19.945,0.258 -1.441,-0.211 -2.874,-0.418 -4.293,-0.551 -9.627,-0.941 -19.117,-2.48 -28.297,-3.947 l -5.171,-0.836 -4.967,6.151 c -2.029,2.721 -4.11,5.434 -6.468,7.868 -3.41,3.55 -7.049,6.952 -10.691,10.35 l -5.232,4.909 c -1.074,1.023 -2.172,2.018 -3.281,3.039 -2.222,1.99 -4.309,3.862 -5.394,5.521 -4.525,6.899 -10.993,10.694 -16.171,13.772 -1.447,0.863 -2.907,1.699 -4.3,2.641 -3.764,2.508 -7.792,3.928 -11.338,5.156 -1.094,0.364 -2.196,0.723 -3.28,1.174 -10.002,3.861 -22.448,5.758 -28.38,-2.588 -5.991,-8.472 -12.417,-25.357 -12.738,-40.244 -0.06,-2.615 -0.521,-5.202 -0.965,-7.81 -0.998,-5.859 -2.097,-12.527 -0.448,-20.003 0.341,-1.547 0.524,-3.092 0.739,-4.604 l 0.512,-3.451 c 0.13,-0.783 0.305,-1.592 0.624,-2.508 0.013,-2.959 -0.028,-5.931 -0.06,-8.916 -0.081,-5.679 -0.15,-11.345 0.06,-16.97 0.205,-5.455 1.843,-10.405 3.148,-14.352 l 0.441,-1.307 c 1.38,-4.054 2.56,-7.537 2.186,-10.191 -0.448,-2.957 -0.565,-7.43 1.31,-11.982 1.19,-2.905 2.534,-5.745 3.881,-8.623 1.338,-2.827 2.677,-5.68 3.818,-8.545 4.591,-11.719 8.887,-23.489 13.167,-35.25 l 1.25,-3.551 c 2.181,-6.408 4.673,-13.68 10.497,-20.42 1.88,-2.229 3.492,-5.281 5.178,-8.525 l 1.698,-3.219 c 0.546,-0.994 0.955,-2.096 1.363,-3.156 1.29,-3.252 2.883,-7.299 6.286,-10.881 0.896,-0.969 1.331,-2.192 2.186,-4.711 l 1.182,-3.319 c 0.593,-1.459 1.781,-4.498 4.641,-6.873 0.271,-0.808 0.575,-1.619 0.97,-2.433 1.59,-3.346 4.077,-5.489 5.912,-6.948 0.78,-2.56 2.316,-6.834 4.539,-9.367 0.767,-0.863 1.582,-1.699 2.411,-2.508 0.55,-0.544 1.141,-1.074 1.985,-2.23 0.941,-1.246 2.235,-2.998 2.527,-3.787 1.874,-5.248 4.842,-9.123 9.348,-12.209 0.733,-0.496 1.827,-1.758 2.9,-2.979 l 1.767,-2.142 c 1.122,-1.674 3.008,-4.473 6.466,-7.186 1.45,-4.033 4.16,-9.912 11.191,-14.197 0.426,-0.346 1.447,-1.658 2.097,-2.522 l 1.489,-1.951 c 0.8,-1.597 2.589,-5.107 6.427,-7.138 0.136,-0.241 0.251,-0.45 0.401,-0.657 1.469,-2.408 4.512,-7.343 10.695,-9.439 l 1.902,-2.217 c 3.471,-4.06 6.922,-8.107 10.494,-12.16 1.38,-1.547 4.239,-4.268 8.446,-5.727 2.356,-3.554 5.02,-6.169 8.355,-8.107 3.56,-2.043 8.416,-4.857 14.968,-4.857 2.269,0 4.558,0.359 6.794,1.035 8.065,2.468 13.886,6.861 19.008,10.748 l 2.358,1.754 c 2.051,1.515 4.001,3.17 5.946,4.816 2.315,1.961 4.604,3.94 7.252,5.545 6.249,3.754 11.331,8.1 16.632,12.652 5.109,4.358 10.105,8.828 15.081,13.276 l 5.559,4.976 0.987,1.014 c 7.227,8.26 8.401,11.008 8.752,11.816 0.85,1.647 3.059,4.446 3.338,4.836 l 2.301,3.299 c 1.435,2.057 2.84,4.1 4.419,6.01 2.263,2.746 4.597,5.441 6.954,8.135 2.46,2.826 4.942,5.666 7.297,8.519 1.406,1.67 2.587,3.502 3.769,5.332 0.53,0.836 1.047,1.699 1.658,2.51 l 6.269,8.24 c 3.715,4.856 7.432,9.725 10.982,14.715 1.93,2.693 3.004,5.387 3.854,7.59 0.331,0.863 0.643,1.697 1.102,2.56 0.854,1.62 1.877,3.159 2.992,4.883 l 1.466,2.409 c 0.118,0.179 13.195,19.843 13.985,26.505 0.259,1.075 1.726,4.709 2.688,6.807 0.417,0.756 0.887,1.434 1.313,2.09 1.519,2.222 3.383,5.008 4.127,8.91 0.192,0.994 1.286,2.879 2.234,4.551 2.152,3.715 5.222,8.97 5.341,15.551 l 0.24,0.373 c 1.208,1.777 2.389,3.554 3.829,5.281 2.852,3.529 4.49,7.111 5.139,11.291 l 0.373,2.349 c 0.915,6.309 1.726,11.768 4.339,16.194 1.712,2.873 2.522,6.377 2.276,9.693 -0.305,4.791 0.856,10.018 2.09,15.531 0.942,4.213 1.864,8.42 2.349,12.786 0.291,2.826 1.073,5.599 1.83,8.373 0.664,2.533 1.354,5.068 1.812,7.523 0.617,3.012 0.398,5.68 0.245,7.615 z m -24.122,-1.119 c -0.279,-2.303 -1.241,-4.631 -0.989,-6.875 0.577,-4.391 -0.232,-8.399 -2.383,-12.108 -1.591,-2.74 -1.538,-5.486 -1.486,-8.472 0.081,-3.768 -0.543,-7.496 -1.021,-11.239 -0.179,-1.591 -0.757,-3.158 -1.041,-4.763 -1.448,-8.227 -2.767,-16.467 -4.273,-24.654 -0.28,-1.62 -0.981,-3.159 -1.699,-4.624 -3.132,-6.429 -6.283,-12.839 -9.488,-19.273 -2.368,-4.725 -4.995,-9.408 -7.164,-14.252 -3.106,-6.978 -5.738,-14.172 -8.54,-21.258 -2.904,-7.263 -8.026,-13.22 -11.185,-20.207 -2.361,-5.123 -5.161,-10.086 -7.955,-15.027 -1.074,-1.879 -3.212,-3.352 -4.007,-5.287 -4.338,-10.817 -14.483,-18.432 -19.168,-29.18 -2.254,-5.195 -7.303,-9.381 -11.052,-14.092 -6.92,-8.599 -13.607,-17.382 -20.781,-25.822 -2.699,-3.197 -5.857,-6.143 -9.115,-9.207 l -0.563,0.397 c -5.208,4.339 -10.794,5.388 -15.3,6.222 -1.241,0.233 -2.474,0.438 -3.682,0.758 -7.494,1.883 -14.844,2.084 -21.964,2.295 l -6.073,0.213 c -6.468,0.279 -12.964,-0.108 -19.437,-0.498 l -3.901,-0.233 c -3.048,-0.187 -5.768,-1.34 -7.798,-2.302 -1.182,-0.549 -2.495,-0.889 -3.792,-1.252 -3.606,-1.049 -8.409,-2.411 -11.591,-6.901 -0.201,-0.033 -0.409,-0.088 -0.603,-0.133 -0.926,-0.212 -1.848,-0.478 -2.678,-0.761 l -1.113,-0.395 c -4.722,6.981 -11.189,13.043 -16.53,19.813 -9.104,11.556 -18.899,22.728 -25.932,35.486 -4.027,7.266 -9.128,14.119 -13.517,21.277 -2.379,3.85 -4.284,7.922 -6.387,11.93 -4.334,8.188 -9.385,16.148 -12.75,24.6 -2.938,7.293 -12.022,25.545 -12.524,27.004 -3.506,10.017 -6.883,20.062 -10.307,30.093 -0.493,1.412 -0.786,2.907 -1.568,4.18 -3.062,5.029 -4.76,10.23 -4.021,15.904 0.156,1.199 -0.315,2.586 -0.912,3.735 -2.049,3.822 -2.77,7.736 -2.31,11.822 0.768,6.795 -2.656,12.885 -4.735,19.215 -0.386,1.199 -0.91,2.428 -0.989,3.662 -0.686,10.012 -1.547,20.076 -1.728,30.094 -0.081,5.041 1.157,10.084 1.781,15.113 0.054,0.571 0.331,1.102 0.271,1.619 -1.088,8.651 2.806,17.8 7.288,24.388 2.76,4.007 10.191,1.653 14.689,-1.227 4.77,-3.033 9.381,-6.197 13.828,-9.567 1.834,-1.386 2.961,-3.509 4.576,-5.129 4.364,-4.471 8.894,-8.81 13.257,-13.282 2.43,-2.482 4.66,-5.122 6.93,-7.736 1.432,-1.599 3.015,-3.144 4.059,-4.935 1.842,-3.067 3.683,-6.198 4.907,-9.469 1.901,-4.969 5.516,-9.096 10.898,-9.959 4.875,-0.789 10.909,-3.197 15.279,1.566 0.57,0.651 1.698,1.022 2.663,1.209 10.529,2.215 21.012,4.698 31.657,6.368 5.158,0.816 10.667,0.16 16.015,-0.053 7.575,-0.258 15.177,0.996 22.738,-1.094 0.912,-0.285 2.092,0 3.037,0.311 5.279,1.859 10.483,0.89 15.729,-0.571 1.004,-0.263 2.079,-0.603 3.015,-0.517 10.343,0.982 20.075,-1.102 29.49,-5.155 0.909,-0.39 2.083,-0.861 2.925,-0.683 4.558,1.049 8.049,-1.367 11.69,-2.979 7.816,-3.449 13.329,-2.302 17.337,4.291 1.432,2.297 1.984,5.043 3.263,7.446 0.917,1.724 2.118,3.482 3.717,4.738 6.554,5.307 13.348,10.375 20.048,15.524 2.741,2.149 5.593,4.127 8.134,6.461 4.672,4.207 9.986,7.631 15.89,10.404 1.181,0.517 2.693,0.504 4.035,0.835 3.92,0.89 7.835,1.805 11.71,2.801 1.838,0.477 4.253,2.089 5.287,1.518 2.117,-1.187 4.564,-3.296 5.035,-5.314 1.554,-6.82 3.51,-13.646 2.933,-20.706 -0.206,-2.82 0.603,-5.752 0.624,-8.619 0.027,-2.494 -0.359,-5.002 -0.683,-7.482"
             style="fill:#f25c19;fill-opacity:1;fill-rule:nonzero;stroke:none"
             id="path4200"
             inkscape:connector-curvature="0" />
        </g>
        <g
           id="g4202"
           transform="matrix(1.25,0,0,-1.25,-410.02683,614.72098)">
          <path
             d="m 0,0 c -1.7,2.5 -3.105,5.182 -4.611,7.77 -1.013,1.824 -1.726,3.781 -2.964,5.425 -2.825,3.69 -5.89,7.22 -8.919,10.722 -0.733,0.836 -1.698,1.672 -2.746,2.071 -3.308,1.174 -6.621,2.268 -10.024,3.164 -6.144,1.573 -14.053,-1.307 -15.863,-6.282 -3.155,-8.85 -6.308,-17.802 -2.224,-27.495 1.174,-2.852 1.406,-6.07 1.841,-9.129 0.571,-3.967 0.383,-8.08 1.536,-11.916 0.624,-2.203 1.407,-3.721 0,-5.943 -1.393,-2.164 0.624,-4.598 3.503,-5.334 3.059,-0.758 5.192,0.343 7.052,2.228 1.321,1.354 2.275,3.131 3.876,4.074 8.226,4.817 16.648,9.487 26.458,11.557 6.097,1.307 10.546,3.69 11.171,9.832 C 6.999,-8.188 5.729,-7.033 4.634,-5.779 3.012,-3.9 1.365,-2.023 0,0 m -13.174,-6.07 c -0.026,-0.864 -1.622,-1.938 -2.768,-2.43 -4.155,-1.857 -8.454,-3.449 -12.597,-5.307 -2.12,-0.941 -4.109,-2.189 -7.435,-4.027 -1.425,7.371 -3.368,11.219 -2.93,17.441 0.446,6.092 0.855,13.311 8.13,16.788 10.307,-2.204 13.547,-9.754 17.335,-16.522 1.388,-2.436 0.397,-3.064 0.265,-5.943"
             style="fill:#f25c19;fill-opacity:1;fill-rule:nonzero;stroke:none"
             id="path4204"
             inkscape:connector-curvature="0" />
        </g>
        <g
           id="g4206"
           transform="matrix(1.25,0,0,-1.25,-86.5777,601.06135)">
          <path
             d="m 0,0 c 0.22,2.586 -1.015,4.258 -3.157,5.598 -9.268,5.852 -22.955,2.324 -27.534,-6.641 -1.598,-3.111 -3.643,-5.539 -8.446,-8.008 -3.183,-3.369 -7.876,-7.603 -11.584,-12.472 -4.001,-5.221 -1.049,-9.872 6.198,-10.563 3.926,-0.357 7.112,-1.697 9.493,-4.67 5.354,-6.596 13.96,-8.215 21.648,-10.933 4.857,-1.725 9.495,2.222 9.739,6.845 0.113,2.489 0.87,4.924 1.66,7.272 0.942,2.959 2.838,5.646 3.297,8.652 0.67,4.373 1.46,9.807 1.593,14.25 0,0.518 0,1.315 -0.373,1.566 C -1.041,-6.557 -0.212,-3.133 0,0 m -10.329,-23.275 c -0.831,-2.323 -1.28,-4.83 -2.403,-7.032 -1.1,-2.004 -0.179,-0.783 -1.791,-2.8 -4.279,-0.225 -8.04,0.822 -10.681,4.711 -0.876,1.259 -2.979,1.91 -4.577,2.773 -1.726,0.941 -3.505,1.805 -6.304,3.236 5.859,6.668 10.694,12.055 16.009,17.862 3.098,3.396 6.528,3.117 9.594,-0.545 2.48,-2.959 1.486,-14.383 0.153,-18.205"
             style="fill:#f25c19;fill-opacity:1;fill-rule:nonzero;stroke:none"
             id="path4208"
             inkscape:connector-curvature="0" />
        </g>
        <g
           id="g4210"
           transform="matrix(1.25,0,0,-1.25,-309.74308,734.56473)">
          <path
             d="m 0,0 c -0.331,6.568 -5.053,11.266 -12.541,11.662 -7.023,0 -15.618,-5.625 -16.598,-13.156 -0.182,-1.572 -0.323,-3.164 -0.427,-4.756 -0.15,-2.064 -0.279,-4.102 -0.663,-6.092 -1.171,-5.705 2.232,-9.353 4.252,-11.529 0.521,-0.551 1.296,-1.414 1.493,-1.912 0.564,-1.725 1.698,-2.813 2.326,-3.397 l 1.432,-1.511 2.057,-0.241 c 1.672,-0.211 3.142,-0.31 4.428,-0.31 8.911,0 12.022,5.387 13.774,10.09 0.883,2.455 1.289,5.201 1.207,8.425 -0.045,2.84 -0.235,5.666 -0.454,8.493 z"
             style="fill:#231f20;fill-opacity:1;fill-rule:nonzero;stroke:none"
             id="path4212"
             inkscape:connector-curvature="0" />
        </g>
        <g
           id="g4214"
           transform="matrix(1.25,0,0,-1.25,-203.42095,725.01148)">
          <path
             d="m 0,0 c -2.8,2.998 -7.271,3.781 -9.028,3.967 l -1.785,0.105 c -7.424,0 -13.919,-5.021 -15.438,-11.927 -1.162,-5.229 -1.831,-10.457 -1.991,-15.579 -0.079,-3.005 1.209,-6.117 4.02,-9.621 1.467,-1.777 3.265,-3.037 4.83,-4.166 l 3.995,-3.025 4.816,1.414 c 1.367,0.418 2.741,0.809 4.08,1.174 7.053,1.752 11.345,6.568 12.088,13.416 l 0.146,1.777 C 5.78,-22 5.819,-21.291 5.792,-21.291 10.709,-11.697 4.041,-4.432 0,0"
             style="fill:#231f20;fill-opacity:1;fill-rule:nonzero;stroke:none"
             id="path4216"
             inkscape:connector-curvature="0" />
        </g>
        <g
           id="g4218"
           transform="matrix(1.25,0,0,-1.25,-257.21857,965.1311)">
          <path
             d="m 0,0 c -2.493,-1.885 -6.31,-2.408 -8.906,-4.232 -4.057,-2.856 -8.526,-3.241 -13.315,-2.338 -2.25,0.425 -4.608,1.527 -6.386,2.855 -2.854,2.121 -5.205,4.762 -7.875,7.111 -1.148,1.022 -2.376,2.356 -3.801,2.694 -4.458,0.994 -6.21,4.033 -8.189,7.139 5.916,6.248 13.688,7.734 21.63,8.73 2.548,0.318 5.307,-0.027 7.902,-0.412 4.849,-0.764 9.607,-1.313 14.586,-1.102 5.556,0.188 11.019,-1.099 15.572,-4.55 1.242,-0.942 2.57,-1.78 4.042,-2.799 C 10.076,8.578 5.285,4.025 0,0"
             style="fill:#231f20;fill-opacity:1;fill-rule:nonzero;stroke:none"
             id="path4220"
             inkscape:connector-curvature="0" />
        </g>
      </g>
    </g>
  </g>
</svg>
